<svg xmlns="http://www.w3.org/2000/svg" version="1.1" xmlns:xlink="http://www.w3.org/1999/xlink" xmlns:svgjs="http://svgjs.dev/svgjs" width="100%" height="100%" viewBox="0 0 1000 600"><rect width="1000" height="600" x="0" y="0" fill="#ee4e34"/><g><rect width="333.3333333333333" height="333.3333333333333" rx="13.333333333333334" ry="13.333333333333334" y="296.61645640556503" fill="#fcedda" transform="matrix(0.45554888268177307,0,0,0.45554888268177307,-13.3512179108707,88.95188546565416)" x="328.22467041015625"/><path d="M362.4885052401532 538.2830894310056L362.4885052401532 538.2830894310056Q321.4928702008967 538.2830894310056 321.4928702008967 500.82771605333943L321.4928702008967 500.82771605333943L321.37386980891046 432.2239900732774L309.3548302183012 432.7594918372154Q303.7023115989552 432.7594918372154 303.7023115989552 428.4457276277145Q303.7023115989552 424.1617135162102 309.771331590253 424.1617135162102L309.771331590253 424.1617135162102L319.8268647130895 424.57821488816205L321.37386980891046 424.57821488816205L321.37386980891046 408.3644114800381L366.26676768571605 388.28309533236165L366.26676768571605 424.57821488816205L380.27906384209473 424.57821488816205L390.21559657294495 424.1617135162102Q396.3738668582324 424.1617135162102 396.3738668582324 428.56472801970074L396.3738668582324 428.56472801970074Q396.3738668582324 430.55798458547014 394.64836117443207 431.6587382113428Q392.9228554906317 432.7594918372154 390.72134823888643 432.7594918372154L390.72134823888643 432.7594918372154L377.7503055123873 432.2239900732774L366.26676768571605 432.2239900732774L366.26676768571605 530.5480639519005Q378.4940579623012 530.3398132659247 386.645584813358 523.5270408247129L386.645584813358 523.5270408247129Q390.51309755291055 520.6115312210503 392.14935294272124 516.0002660315838Q393.7558582345353 511.3890008421174 395.0648625463839 510.0799965302689Q396.3738668582324 508.7709922184203 398.1588727380259 508.7709922184203L398.1588727380259 508.7709922184203Q399.94387861781934 508.7709922184203 401.19338273367475 510.1989969222551Q402.44288684953017 511.5972515280933 402.44288684953017 513.5310078978696Q402.44288684953017 515.4647642676458 401.40163341965064 517.8150220093738Q400.36037998977116 520.1950298490985 398.24812303201554 522.783288374799L398.24812303201554 522.783288374799Q393.5476075485594 528.6440576801208 387.38933726327195 532.0950690477216L387.38933726327195 532.0950690477216Q376.2033004165663 538.2830894310056 362.4885052401532 538.2830894310056ZM505.6757268975854 422.7039587143789L505.6757268975854 422.7039587143789Q542.5063482173239 422.7039587143789 542.5063482173239 458.4635765062412L542.5063482173239 458.4635765062412L542.5063482173239 536.2898328652361L497.52420004652856 536.2898328652361L497.52420004652856 434.5147476190123Q495.64994387274544 433.26524350315685 492.5559336811034 433.26524350315685Q489.46192348946147 433.26524350315685 486.129912513847 434.7229983049882Q482.76815144023595 436.2105032048161 479.10888938665937 438.7987617305166L479.10888938665937 438.7987617305166Q471.2548635155681 444.5702807418488 465.18584352427035 453.2573093568437L465.18584352427035 453.2573093568437L465.18584352427035 536.2898328652361L420.23344545147165 536.2898328652361L420.23344545147165 388.28309533236165L465.18584352427035 388.28309533236165L465.18584352427035 442.2497730981173Q483.09540251819806 422.7039587143789 505.6757268975854 422.7039587143789ZM673.7637805781364 510.8832491761759L673.7637805781364 510.8832491761759Q677.8395440036647 510.8832491761759 677.8395440036647 514.6317615237422L677.8395440036647 514.6317615237422Q677.8395440036647 517.4580208334152 674.1802819500881 521.3255335729676L674.1802819500881 521.3255335729676Q657.639227464002 538.2830894310056 628.8708827013309 538.2830894310056L628.8708827013309 538.2830894310056Q603.0477976403188 538.2830894310056 585.3762394303635 522.6940380808094L585.3762394303635 522.6940380808094Q567.0799291624804 506.48023467268536 567.0799291624804 481.6984030415528L567.0799291624804 481.6984030415528Q567.0799291624804 456.3810696464822 583.5912335505699 440.0780159443686L583.5912335505699 440.0780159443686Q601.0545410745494 422.7039587143789 630.0311365231964 422.7039587143789L630.0311365231964 422.7039587143789Q653.2659630585081 422.7039587143789 669.0335149966836 436.83525526274383L669.0335149966836 436.83525526274383Q686.0803211487112 451.9780551429917 686.0803211487112 476.6706364801346L686.0803211487112 476.6706364801346Q686.0803211487112 480.2406482397215 685.8720704627353 484.19741127326364L685.8720704627353 484.19741127326364L616.8518431107216 484.19741127326364L616.8518431107216 529.0605590520727Q623.9621165318988 530.5480639519005 632.8573958328695 530.5480639519005L632.8573958328695 530.5480639519005Q651.6892078646906 530.5480639519005 664.9577515711553 518.0827728913429L664.9577515711553 518.0827728913429Q667.6947605868386 515.3755139736561 668.8252643107078 513.7987587798386L668.8252643107078 513.7987587798386Q671.235022248429 510.8832491761759 673.7637805781364 510.8832491761759ZM645.8284385593686 476.58138618614487L645.8284385593686 432.31324036726704Q639.015666118157 430.34973389949425 630.4476378951483 430.34973389949425Q621.8796096721396 430.34973389949425 616.8518431107216 431.48023762336345L616.8518431107216 431.48023762336345L616.8518431107216 476.58138618614487L645.8284385593686 476.58138618614487Z " fill="#ee4e34" transform="matrix(0.45554888268177307,0,0,0.45554888268177307,-13.3512179108707,88.95188546565416)"/><path d="M744.8913223583074 536.2898328652361L744.8913223583074 388.28309533236165L798.2034979681389 388.28309533236165L798.2034979681389 536.2898328652361L744.8913223583074 536.2898328652361ZM910.3316173171647 536.2898328652361L910.3316173171647 436.0022525188402Q907.7136086934677 434.3064969330364 904.6790986978189 434.3064969330364Q901.6445887021699 434.3064969330364 898.4018280205452 435.7345016368712Q895.1590673389203 437.1327562427094 891.61880567733 439.6615145724168L891.61880567733 439.6615145724168Q884.1812811781906 444.9867821138006 877.9040105009169 453.8820614147714L877.9040105009169 453.8820614147714L877.9040105009169 536.2898328652361L832.9516124281182 536.2898328652361L832.9516124281182 424.57821488816205L877.9040105009169 424.57821488816205L877.9040105009169 442.4580237840932Q895.8135694948446 422.7039587143789 918.3938938742319 422.7039587143789L918.3938938742319 422.7039587143789Q955.31376548796 422.7039587143789 955.31376548796 458.4635765062412L955.31376548796 458.4635765062412L955.31376548796 536.2898328652361L910.3316173171647 536.2898328652361ZM981.3451012349481 522.2775367088575L981.3451012349481 522.2775367088575Q981.3451012349481 520.7007815150399 982.4458548608206 519.3917772031914Q983.5466084866932 518.0827728913429 985.3316143664867 518.0827728913429Q987.1166202462803 518.0827728913429 988.2471239701495 519.1240263212223L988.2471239701495 519.1240263212223Q988.2471239701495 519.1240263212223 990.8651325938465 521.5337842589436L990.8651325938465 521.5337842589436Q1001.7536684605866 531.053815617842 1021.299482844325 531.053815617842L1021.299482844325 531.053815617842Q1034.4787762568 531.053815617842 1038.257038702363 525.609547684472L1038.257038702363 525.609547684472Q1039.2982921322423 524.1517928826406 1039.2982921322423 522.6345378848162Q1039.2982921322423 521.1172828869917 1038.7330402703078 519.7190282811536Q1038.1380383103767 518.2910235773188 1036.2637821365934 516.2680169135529Q1034.3895259628102 514.2152601517904 1030.9385145952097 511.3890008421174L1030.9385145952097 511.3890008421174L1021.7159842162769 503.9812264409745Q998.9274091509136 486.19066783903304 990.4486312218946 475.093881286317L990.4486312218946 475.093881286317Q982.7136057427897 464.94909786949086 982.7136057427897 454.3878130807128L982.7136057427897 454.3878130807128Q982.7136057427897 441.1192693742481 994.9408960193749 432.10498968129116L994.9408960193749 432.10498968129116Q1007.6144377659084 422.7039587143789 1027.695753913585 422.7039587143789L1027.695753913585 422.7039587143789Q1041.7973003639531 422.7039587143789 1049.9785773130066 425.9467193960037Q1058.1301041640634 429.1894800776285 1061.462115139678 431.86698889731866Q1064.823876213289 434.5147476190123 1064.823876213289 436.71625487075755L1064.823876213289 436.71625487075755Q1064.823876213289 441.2085196682378 1061.253864453702 441.2085196682378L1061.253864453702 441.2085196682378Q1059.5878589658946 441.2085196682378 1058.1896043600566 440.0185157483755Q1056.7615996562217 438.7987617305166 1052.566835838707 435.94275232284707Q1048.401822119189 433.05699281718097 1041.4997993839877 431.39098732937373Q1034.5977766487863 429.72498184156655 1028.6180069514783 429.72498184156655Q1022.6679873521666 429.72498184156655 1020.1987292184524 431.59923801534967Q1017.7592211827346 433.4734941891328 1017.7592211827346 435.31800026491936Q1017.7592211827346 437.1327562427094 1018.4732235346521 438.76901163252006Q1019.216975984566 440.3755169243342 1021.2102325503354 442.5770241760795L1021.2102325503354 442.5770241760795Q1025.7917476418052 448.0212921094495 1035.9365310586313 455.42906651059235Q1046.111064573454 462.8665910097318 1053.102337602645 469.02486129501926Q1060.1233607298327 475.21288167830323 1064.080123763375 480.4488989256974L1064.080123763375 480.4488989256974Q1071.3093975765385 489.8499298926096 1071.3093975765385 499.45921154549774Q1071.3093975765385 509.09824329638246 1067.7393858169517 515.9407658355907Q1064.1991241553612 522.783288374799 1057.5946024001253 527.7218046422275L1057.5946024001253 527.7218046422275Q1043.7013066357329 538.2830894310056 1020.4664801004214 538.2830894310056L1020.4664801004214 538.2830894310056Q1001.8429187545762 538.2830894310056 989.4073777920152 531.1728160098282L989.4073777920152 531.1728160098282Q981.3451012349481 526.6805512123481 981.3451012349481 522.2775367088575ZM1139.4966221846487 538.2830894310056L1139.4966221846487 538.2830894310056Q1098.5009871453922 538.2830894310056 1098.5009871453922 500.82771605333943L1098.5009871453922 500.82771605333943L1098.381986753406 432.2239900732774L1086.3629471627967 432.7594918372154Q1080.7104285434507 432.7594918372154 1080.7104285434507 428.4457276277145Q1080.7104285434507 424.1617135162102 1086.7794485347486 424.1617135162102L1086.7794485347486 424.1617135162102L1096.834981657585 424.57821488816205L1098.381986753406 424.57821488816205L1098.381986753406 408.3644114800381L1143.2748846302115 388.28309533236165L1143.2748846302115 424.57821488816205L1157.2871807865902 424.57821488816205L1167.2237135174405 424.1617135162102Q1173.381983802728 424.1617135162102 1173.381983802728 428.56472801970074L1173.381983802728 428.56472801970074Q1173.381983802728 430.55798458547014 1171.6564781189277 431.6587382113428Q1169.9309724351274 432.7594918372154 1167.729465183382 432.7594918372154L1167.729465183382 432.7594918372154L1154.7584224568827 432.2239900732774L1143.2748846302115 432.2239900732774L1143.2748846302115 530.5480639519005Q1155.5021749067969 530.3398132659247 1163.6537017578535 523.5270408247129L1163.6537017578535 523.5270408247129Q1167.5212144974062 520.6115312210503 1169.1574698872168 516.0002660315838Q1170.763975179031 511.3890008421174 1172.0729794908793 510.0799965302689Q1173.381983802728 508.7709922184203 1175.1669896825213 508.7709922184203L1175.1669896825213 508.7709922184203Q1176.951995562315 508.7709922184203 1178.2014996781704 510.1989969222551Q1179.4510037940256 511.5972515280933 1179.4510037940256 513.5310078978696Q1179.4510037940256 515.4647642676458 1178.409750364146 517.8150220093738Q1177.3684969342667 520.1950298490985 1175.256239976511 522.783288374799L1175.256239976511 522.783288374799Q1170.555724493055 528.6440576801208 1164.3974542077676 532.0950690477216L1164.3974542077676 532.0950690477216Q1153.2114173610619 538.2830894310056 1139.4966221846487 538.2830894310056ZM1267.2137928838708 536.2898328652361L1267.2137928838708 529.3878101300348Q1253.82624878542 538.2830894310056 1237.49344498531 538.2830894310056L1237.49344498531 538.2830894310056Q1215.8353736438157 538.2830894310056 1202.7750806233269 527.3945535642654L1202.7750806233269 527.3945535642654Q1189.1792858389001 516.2085167175597 1189.1792858389001 496.3354512558592L1189.1792858389001 496.3354512558592Q1189.1792858389001 478.7531433398936 1202.6560802313406 467.47785619919824L1202.6560802313406 467.47785619919824Q1216.4601257017434 456.0835686665166 1238.951199787141 456.0835686665166L1238.951199787141 456.0835686665166Q1254.034499471396 456.0835686665166 1267.2137928838708 461.82533757985226L1267.2137928838708 461.82533757985226L1267.2137928838708 433.05699281718097Q1257.6937615249724 430.34973389949425 1250.4049875158157 430.34973389949425Q1243.1459636046557 430.34973389949425 1238.1181970432374 430.97448595742196Q1233.090430481819 431.59923801534967 1228.5981656843392 432.8487421312051L1228.5981656843392 432.8487421312051Q1218.8698836394647 435.55600104889186 1213.871867176043 440.16726623835825L1213.871867176043 440.16726623835825Q1210.9266074743837 442.9042752540416 1208.5168495366624 442.9042752540416Q1206.1070915989415 442.9042752540416 1204.857587483086 441.6845212361827Q1203.6080833672304 440.4945173163204 1203.6080833672304 439.0070124164925Q1203.6080833672304 437.5492576146612 1204.1435851311685 436.3592536947989Q1204.64933679711 435.13949967694003 1206.1070915989415 433.88999556108456L1206.1070915989415 433.88999556108456Q1209.2606019865766 431.18273664339785 1216.5791260937297 428.4457276277145L1216.5791260937297 428.4457276277145Q1231.751676071974 422.7039587143789 1247.0134763442084 422.7039587143789L1247.0134763442084 422.7039587143789Q1293.4533793168348 422.7039587143789 1306.3054216513478 444.86778172181437L1306.3054216513478 444.86778172181437Q1311.9579402706936 454.715064158675 1311.9579402706936 470.720616880823L1311.9579402706936 470.720616880823L1311.9579402706936 536.2898328652361L1267.2137928838708 536.2898328652361ZM1267.2137928838708 520.4032805350744L1267.2137928838708 469.9768644309091Q1254.034499471396 463.6103434596457 1240.9444563529105 463.6103434596457L1240.9444563529105 463.6103434596457Q1238.8619494931513 463.6103434596457 1236.9876933193682 463.9078444396113L1236.9876933193682 463.9078444396113L1236.9876933193682 530.4290635599143Q1237.49344498531 530.5480639519005 1238.1181970432374 530.5480639519005Q1238.7429491011653 530.5480639519005 1239.3677011590928 530.5480639519005L1239.3677011590928 530.5480639519005Q1253.7072483934337 530.5480639519005 1267.2137928838708 520.4032805350744L1267.2137928838708 520.4032805350744ZM1392.8187066253374 536.2898328652361L1392.8187066253374 388.28309533236165L1436.3133498963048 388.28309533236165Q1466.7477001467835 388.28309533236165 1480.968246989138 392.5968595418625L1480.968246989138 392.5968595418625Q1497.1820503972617 397.5948760052842 1506.0178295022395 405.44890187637543Q1514.8833587052136 413.3029277474667 1519.8813751686353 421.6627052844994L1519.8813751686353 421.6627052844994Q1530.1451589774479 438.70951143652695 1530.1451589774479 460.36758277802096L1530.1451589774479 460.36758277802096Q1530.1451589774479 494.4611950820761 1505.6608283262808 515.583764659632L1505.6608283262808 515.583764659632Q1488.3165211942878 530.7563146378765 1464.7841936790105 534.2965762994668L1464.7841936790105 534.2965762994668Q1451.6941505605253 536.2898328652361 1428.1618230452482 536.2898328652361L1428.1618230452482 536.2898328652361L1392.8187066253374 536.2898328652361ZM1446.1606323331653 396.25612159543914L1446.1606323331653 527.6028042502413Q1447.8266378209728 527.7218046422275 1449.1951423288142 527.7218046422275L1449.1951423288142 527.7218046422275L1451.6049002665354 527.7218046422275Q1479.9269935592583 527.7218046422275 1500.0083097069348 510.0502464322723L1500.0083097069348 510.0502464322723Q1521.2498796764771 491.4266850864272 1521.2498796764771 460.57583346399684L1521.2498796764771 460.57583346399684Q1521.2498796764771 441.1192693742481 1511.9380990035543 425.5302180240519L1511.9380990035543 425.5302180240519Q1498.461304611114 402.8308932526784 1469.2764584764907 398.01137737723604L1469.2764584764907 398.01137737723604Q1459.7564271175922 396.464372281415 1446.1606323331653 396.25612159543914L1446.1606323331653 396.25612159543914ZM1594.0483694740537 538.2830894310056L1594.0483694740537 538.2830894310056Q1557.3367485463016 538.2830894310056 1557.3367485463016 502.40447124715695L1557.3367485463016 502.40447124715695L1557.3367485463016 424.57821488816205L1602.1106460311207 424.57821488816205L1602.1106460311207 526.9780521923136Q1603.1518994610005 527.5135539562516 1604.6989045568214 527.5135539562516L1604.6989045568214 527.5135539562516L1608.1499159244222 527.5135539562516Q1616.5394435594512 527.5135539562516 1628.0229813861229 516.2085167175597L1628.0229813861229 516.2085167175597Q1631.4739927537235 512.757505349959 1634.5085027493724 508.68174192443064L1634.5085027493724 508.68174192443064L1634.5085027493724 424.57821488816205L1679.4906509201674 424.57821488816205L1679.4906509201674 536.2898328652361L1634.5085027493724 536.2898328652361L1634.5085027493724 520.1950298490985Q1617.4616965973446 538.2830894310056 1594.0483694740537 538.2830894310056ZM1755.531901399369 431.18273664339785L1755.531901399369 529.5960608160107Q1760.440667568801 530.5480639519005 1765.4089339342258 530.5480639519005Q1770.3772002996511 530.5480639519005 1775.0479656851107 529.7448113059935Q1779.6889809725735 528.971308758083 1783.8837447900883 527.5135539562516L1783.8837447900883 527.5135539562516Q1792.7790240910595 524.3600435686166 1798.1935419264328 519.5405276931742L1798.1935419264328 519.5405276931742Q1802.061054665985 516.2085167175597 1803.8460605457785 516.2085167175597L1803.8460605457785 516.2085167175597Q1807.8325736773172 516.2085167175597 1807.8325736773172 519.7785284771467Q1807.8325736773172 523.3187901387371 1801.3470523140677 528.227556308169L1801.3470523140677 528.227556308169Q1786.2935027278095 538.2830894310056 1765.141183052257 538.2830894310056L1765.141183052257 538.2830894310056Q1737.6520925034379 538.2830894310056 1720.6945366453997 521.7420349449195L1720.6945366453997 521.7420349449195Q1704.064231865324 505.4389812428059 1704.064231865324 479.3778953978213L1704.064231865324 479.3778953978213Q1704.064231865324 454.715064158675 1721.7357900752795 438.5905110445407L1721.7357900752795 438.5905110445407Q1739.318097991245 422.7039587143789 1765.8849355021707 422.7039587143789L1765.8849355021707 422.7039587143789Q1781.0574854804154 422.7039587143789 1795.0697816367942 428.98122939165256L1795.0697816367942 428.98122939165256Q1805.7203167195617 433.592494581119 1805.7203167195617 438.50126075055107L1805.7203167195617 438.50126075055107Q1805.7203167195617 440.5837676103101 1804.5303127996995 441.6845212361827Q1803.3403088798373 442.78527486205536 1801.8528039800094 442.78527486205536L1801.8528039800094 442.78527486205536Q1799.6810468262606 442.78527486205536 1796.23003545866 440.3755169243342L1796.23003545866 440.3755169243342Q1789.417263017448 433.88999556108456 1776.0297189189973 431.2719869373875L1776.0297189189973 431.2719869373875Q1771.2102030435549 430.34973389949425 1765.468434130219 430.34973389949425Q1759.7266652168835 430.34973389949425 1755.531901399369 431.18273664339785L1755.531901399369 431.18273664339785ZM1831.6624021725602 536.2898328652361L1831.6624021725602 388.28309533236165L1876.6445503433556 388.28309533236165L1876.6445503433556 468.10260825712595L1920.6746953782608 436.2105032048161Q1926.9519660555343 431.48023762336345 1930.7302285010974 427.10697321786944Q1934.4787408486636 422.7039587143789 1937.0967494723604 422.7039587143789L1937.0967494723604 422.7039587143789Q1941.7972649558164 422.7039587143789 1941.7972649558164 426.5714714539314L1941.7972649558164 426.5714714539314Q1941.7972649558164 429.5167311555906 1938.2570032942263 432.43224075925326L1938.2570032942263 432.43224075925326L1911.571165391314 453.04905867086774L1950.0677921988595 536.2898328652361L1903.3303882462674 536.2898328652361L1876.6445503433556 477.2953885380623L1876.6445503433556 536.2898328652361L1831.6624021725602 536.2898328652361Z " fill="#fcedda" transform="matrix(0.45554888268177307,0,0,0.45554888268177307,-13.3512179108707,88.95188546565416)"/></g></svg>